<svg width="32" height="32" viewBox="0 0 32 32" fill="none" xmlns="http://www.w3.org/2000/svg">
  <!-- Background Square with Gradient -->
  <rect width="32" height="32" rx="5" fill="url(#paint0_linear)" />
  
  <!-- AI Chip Design -->
  <rect x="6" y="6" width="20" height="20" rx="2" fill="#1F2937" />
  
  <!-- Circuit Pattern -->
  <rect x="8" y="8" width="4" height="1" fill="#10B981" />
  <rect x="8" y="8" width="1" height="4" fill="#10B981" />
  <rect x="20" y="8" width="4" height="1" fill="#3B82F6" />
  <rect x="23" y="8" width="1" height="4" fill="#3B82F6" />
  <rect x="8" y="23" width="4" height="1" fill="#F59E0B" />
  <rect x="8" y="20" width="1" height="4" fill="#F59E0B" />
  <rect x="20" y="23" width="4" height="1" fill="#8B5CF6" />
  <rect x="23" y="20" width="1" height="4" fill="#8B5CF6" />
  
  <!-- Central Processing Unit with improved AS visibility -->
  <rect x="12" y="12" width="8" height="8" rx="1" fill="white" />
  
  <!-- AS Letters with improved visibility -->
  <path d="M14.5 19L16 15H16.5L18 19H17.2L16.8 18H15.7L15.3 19H14.5ZM15.9 17.4H16.6L16.25 16.3L15.9 17.4Z" fill="#3B82F6" />
  <path d="M18.4 19V15H20.1C20.5 15 20.8 15.1 21 15.3C21.2 15.5 21.3 15.7 21.3 16C21.3 16.3 21.2 16.5 21 16.7C20.9 16.8 20.7 16.9 20.5 16.9C20.7 17 20.9 17.1 21 17.2C21.2 17.4 21.3 17.6 21.3 17.9C21.3 18.2 21.2 18.5 21 18.7C20.8 18.9 20.5 19 20.1 19H18.4ZM19.2 16.7H20C20.1 16.7 20.2 16.6 20.3 16.6C20.4 16.5 20.4 16.4 20.4 16.3C20.4 16.2 20.4 16.1 20.3 16C20.2 15.9 20.1 15.9 20 15.9H19.2V16.7ZM19.2 18.2H20C20.1 18.2 20.2 18.1 20.3 18.1C20.4 18 20.4 17.9 20.4 17.8C20.4 17.7 20.4 17.6 20.3 17.5C20.2 17.4 20.1 17.4 20 17.4H19.2V18.2Z" fill="#D946EF" />
  
  <!-- Chip Pins -->
  <rect x="4" y="10" width="2" height="1" fill="#6B7280" />
  <rect x="4" y="13" width="2" height="1" fill="#6B7280" />
  <rect x="4" y="16" width="2" height="1" fill="#6B7280" />
  <rect x="4" y="19" width="2" height="1" fill="#6B7280" />
  <rect x="26" y="10" width="2" height="1" fill="#6B7280" />
  <rect x="26" y="13" width="2" height="1" fill="#6B7280" />
  <rect x="26" y="16" width="2" height="1" fill="#6B7280" />
  <rect x="26" y="19" width="2" height="1" fill="#6B7280" />
  
  <!-- Gradients -->
  <defs>
    <linearGradient id="paint0_linear" x1="0" y1="0" x2="32" y2="32" gradientUnits="userSpaceOnUse">
      <stop stop-color="#3B82F6" />
      <stop offset="1" stop-color="#D946EF" />
    </linearGradient>
  </defs>
</svg>